<svg width="132" height="24" viewBox="0 0 132 24" fill="none" xmlns="http://www.w3.org/2000/svg">
<rect x="1.78495" y="2" width="6.66667" height="6.66667" fill="#1D1D1F"/>
<rect x="1.78495" y="15.3334" width="6.66667" height="6.66667" fill="#1D1D1F"/>
<rect x="8.45162" y="8.66663" width="6.66667" height="6.66667" fill="#1D1D1F"/>
<rect x="15.1183" y="2" width="6.66667" height="6.66667" fill="#1D1D1F"/>
<rect x="15.1183" y="15.3334" width="6.66667" height="6.66667" fill="#1D1D1F"/>
<path d="M123.996 19V8.28003H126.836L126.936 11.4L126.716 11.34C126.889 10.26 127.196 9.48003 127.636 9.00003C128.076 8.52003 128.682 8.28003 129.456 8.28003H130.436V10.76H129.456C128.896 10.76 128.436 10.8334 128.076 10.98C127.716 11.1267 127.442 11.36 127.256 11.68C127.082 12 126.996 12.4334 126.996 12.98V19H123.996Z" fill="#1D1D1F"/>
<path d="M117.902 19.24C116.808 19.24 115.855 19.0134 115.042 18.56C114.242 18.0934 113.615 17.44 113.162 16.6C112.722 15.76 112.502 14.7734 112.502 13.64C112.502 12.5067 112.722 11.5267 113.162 10.7C113.615 9.86004 114.242 9.20671 115.042 8.74004C115.842 8.27337 116.788 8.04004 117.882 8.04004C118.948 8.04004 119.875 8.27337 120.662 8.74004C121.448 9.20671 122.055 9.87337 122.482 10.74C122.922 11.6067 123.142 12.64 123.142 13.84V14.44H115.602C115.642 15.2934 115.868 15.9267 116.282 16.34C116.708 16.7534 117.268 16.96 117.962 16.96C118.468 16.96 118.888 16.8534 119.222 16.64C119.568 16.4267 119.815 16.1 119.962 15.66L122.982 15.84C122.702 16.9067 122.108 17.74 121.202 18.34C120.295 18.94 119.195 19.24 117.902 19.24ZM115.602 12.6H120.062C120.022 11.8134 119.802 11.2267 119.402 10.84C119.015 10.4534 118.508 10.26 117.882 10.26C117.255 10.26 116.735 10.4667 116.322 10.88C115.922 11.28 115.682 11.8534 115.602 12.6Z" fill="#1D1D1F"/>
<path d="M105.421 19.24C104.515 19.24 103.728 19.0134 103.061 18.5601C102.408 18.0934 101.901 17.4467 101.541 16.62C101.195 15.78 101.021 14.7867 101.021 13.64C101.021 12.4934 101.201 11.5067 101.561 10.68C101.921 9.84005 102.428 9.19338 103.081 8.74005C103.748 8.27338 104.528 8.04005 105.421 8.04005C106.181 8.04005 106.835 8.20005 107.381 8.52005C107.941 8.82672 108.361 9.25338 108.641 9.80005V4.80005H111.641V19H108.781L108.721 17.42C108.428 17.9934 107.988 18.44 107.401 18.76C106.828 19.08 106.168 19.24 105.421 19.24ZM106.401 16.94C106.881 16.94 107.288 16.8134 107.621 16.56C107.955 16.3067 108.208 15.94 108.381 15.46C108.555 14.9667 108.641 14.36 108.641 13.64C108.641 12.9067 108.555 12.3 108.381 11.82C108.208 11.3267 107.955 10.96 107.621 10.72C107.288 10.4667 106.881 10.34 106.401 10.34C105.695 10.34 105.135 10.64 104.721 11.24C104.308 11.8267 104.101 12.6267 104.101 13.64C104.101 14.64 104.308 15.44 104.721 16.04C105.148 16.64 105.708 16.94 106.401 16.94Z" fill="#1D1D1F"/>
<path d="M90.6286 19V8.28004H93.3286L93.4486 11.42L93.0686 11.32C93.1753 10.52 93.3886 9.88004 93.7086 9.40004C94.0419 8.92004 94.4553 8.57337 94.9486 8.36004C95.4419 8.14671 95.9819 8.04004 96.5686 8.04004C97.3419 8.04004 97.9953 8.20671 98.5286 8.54004C99.0753 8.87337 99.4886 9.34671 99.7686 9.96004C100.062 10.56 100.209 11.2734 100.209 12.1V19H97.2086V13.1C97.2086 12.5267 97.1619 12.04 97.0686 11.64C96.9753 11.24 96.8086 10.94 96.5686 10.74C96.3286 10.5267 95.9953 10.42 95.5686 10.42C94.9419 10.42 94.4619 10.6534 94.1286 11.12C93.7953 11.5734 93.6286 12.2334 93.6286 13.1V19H90.6286Z" fill="#1D1D1F"/>
<path d="M84.5345 19.24C83.4412 19.24 82.4879 19.0134 81.6745 18.56C80.8745 18.0934 80.2479 17.44 79.7945 16.6C79.3545 15.76 79.1345 14.7734 79.1345 13.64C79.1345 12.5067 79.3545 11.5267 79.7945 10.7C80.2479 9.86004 80.8745 9.20671 81.6745 8.74004C82.4745 8.27337 83.4212 8.04004 84.5145 8.04004C85.5812 8.04004 86.5079 8.27337 87.2945 8.74004C88.0812 9.20671 88.6879 9.87337 89.1145 10.74C89.5545 11.6067 89.7745 12.64 89.7745 13.84V14.44H82.2345C82.2745 15.2934 82.5012 15.9267 82.9145 16.34C83.3412 16.7534 83.9012 16.96 84.5945 16.96C85.1012 16.96 85.5212 16.8534 85.8545 16.64C86.2012 16.4267 86.4479 16.1 86.5945 15.66L89.6145 15.84C89.3345 16.9067 88.7412 17.74 87.8345 18.34C86.9279 18.94 85.8279 19.24 84.5345 19.24ZM82.2345 12.6H86.6945C86.6545 11.8134 86.4345 11.2267 86.0345 10.84C85.6479 10.4534 85.1412 10.26 84.5145 10.26C83.8879 10.26 83.3679 10.4667 82.9545 10.88C82.5545 11.28 82.3145 11.8534 82.2345 12.6Z" fill="#1D1D1F"/>
<path d="M73.0192 19V8.28003H75.8592L75.9592 11.4L75.7392 11.34C75.9126 10.26 76.2192 9.48003 76.6592 9.00003C77.0992 8.52003 77.7059 8.28003 78.4792 8.28003H79.4592V10.76H78.4792C77.9192 10.76 77.4592 10.8334 77.0992 10.98C76.7392 11.1267 76.4659 11.36 76.2792 11.68C76.1059 12 76.0192 12.4334 76.0192 12.98V19H73.0192Z" fill="#1D1D1F"/>
<path d="M66.7113 19.24C65.6179 19.24 64.6646 19.0134 63.8512 18.56C63.0379 18.0934 62.4046 17.44 61.9512 16.6C61.4979 15.76 61.2713 14.7734 61.2713 13.64C61.2713 12.5067 61.4979 11.5267 61.9512 10.7C62.4046 9.86004 63.0379 9.20671 63.8512 8.74004C64.6646 8.27337 65.6179 8.04004 66.7113 8.04004C67.8046 8.04004 68.7579 8.27337 69.5713 8.74004C70.3846 9.20671 71.0179 9.86004 71.4713 10.7C71.9246 11.5267 72.1512 12.5067 72.1512 13.64C72.1512 14.7734 71.9246 15.76 71.4713 16.6C71.0179 17.44 70.3846 18.0934 69.5713 18.56C68.7579 19.0134 67.8046 19.24 66.7113 19.24ZM66.7113 16.94C67.4579 16.94 68.0379 16.6534 68.4513 16.08C68.8646 15.4934 69.0713 14.68 69.0713 13.64C69.0713 12.6 68.8646 11.7934 68.4513 11.22C68.0379 10.6334 67.4579 10.34 66.7113 10.34C65.9646 10.34 65.3846 10.6334 64.9712 11.22C64.5579 11.7934 64.3512 12.6 64.3512 13.64C64.3512 14.68 64.5579 15.4934 64.9712 16.08C65.3846 16.6534 65.9646 16.94 66.7113 16.94Z" fill="#1D1D1F"/>
<path d="M58.6584 19C57.5518 19 56.7384 18.7467 56.2184 18.24C55.6984 17.72 55.4384 16.9 55.4384 15.78V5.76001H58.4384V15.42C58.4384 15.94 58.5451 16.2933 58.7584 16.48C58.9851 16.6667 59.3184 16.76 59.7584 16.76H61.2584V19H58.6584ZM53.7184 10.52V8.28001H61.2584V10.52H53.7184Z" fill="#1D1D1F"/>
<path d="M47.0197 19.24C45.913 19.24 45.0464 18.8867 44.4197 18.18C43.8064 17.46 43.4997 16.46 43.4997 15.18V8.28003H46.4997V14.48C46.4997 15.3067 46.6264 15.9134 46.8797 16.3C47.133 16.6734 47.533 16.86 48.0797 16.86C48.693 16.86 49.1664 16.6534 49.4997 16.24C49.8464 15.8134 50.0197 15.18 50.0197 14.34V8.28003H53.0197V19H50.2797L50.1997 15.92L50.5797 16C50.4197 17.0667 50.0397 17.8734 49.4397 18.42C48.8397 18.9667 48.033 19.24 47.0197 19.24Z" fill="#1D1D1F"/>
<path d="M29.38 19L34.5 4.80005H38.1L43.22 19H40.06L39.02 15.98H33.56L32.52 19H29.38ZM34.42 13.48H38.18L36.3 8.00005L34.42 13.48Z" fill="#1D1D1F"/>
</svg>
